<svg width="79" height="68" viewBox="0 0 79 68" fill="none" xmlns="http://www.w3.org/2000/svg">
<g clip-path="url(#clip0_3_96)">
<rect width="79" height="68" rx="12" fill="white"/>
<path d="M0 12C0 5.37258 5.37258 0 12 0H67C73.6274 0 79 5.37258 79 12V56C79 62.6274 73.6274 68 67 68H12C5.37258 68 0 62.6274 0 56V12Z" fill="#19151B"/>
<path d="M29.8585 62.2961C27.1372 63.5269 24.4544 64.0146 21.8101 63.7589C19.1658 63.5033 16.7751 62.6179 14.638 61.1026C12.4834 59.5484 10.817 57.469 9.63892 54.8644C8.46083 52.2598 8.00839 49.6547 8.28159 47.0493C8.53721 44.4049 9.4421 42.0054 10.9963 39.8508C12.5504 37.6962 14.6881 36.0034 17.4094 34.7726C20.0918 33.5593 22.7746 33.0717 25.4578 33.3098C28.1021 33.5654 30.5016 34.4703 32.6562 36.0244C34.7933 37.5397 36.4508 39.5997 37.6289 42.2043C38.807 44.8089 39.2683 47.4334 39.0126 50.0777C38.7394 52.6832 37.8258 55.0633 36.2716 57.2179C34.6786 59.3901 32.5409 61.0828 29.8585 62.2961ZM28.4606 59.2055C30.6376 58.2209 32.3509 56.884 33.6005 55.1949C34.8501 53.5058 35.6004 51.6445 35.8514 49.6111C36.0459 47.5563 35.686 45.5182 34.7716 43.4967C33.8573 41.4752 32.5731 39.8785 30.9192 38.7066C29.2088 37.5135 27.3068 36.8284 25.2132 36.6515C23.1196 36.4746 20.9843 36.8785 18.8073 37.8632C16.6691 38.8302 14.9753 40.1583 13.7256 41.8474C12.4371 43.5541 11.6957 45.4348 11.5012 47.4896C11.2502 49.523 11.5819 51.5505 12.4962 53.572C13.4106 55.5935 14.7229 57.2008 16.4333 58.394C18.0872 59.5659 19.961 60.2403 22.0546 60.4172C24.1483 60.5941 26.2836 60.1902 28.4606 59.2055Z" fill="#B20DFF"/>
<path d="M57.4591 48.9692C53.3189 50.8419 49.2524 51.5573 45.2595 51.1156C41.2402 50.6155 37.6306 49.1575 34.4306 46.7416C31.1459 44.2937 28.5936 41.058 26.7737 37.0344C24.9274 32.9526 24.1828 28.8992 24.5399 24.8744C24.8386 20.8759 26.1404 17.2316 28.4453 13.9413C30.7238 10.5928 33.9331 7.98215 38.0733 6.10951C42.1552 4.26325 46.2349 3.57696 50.3125 4.05064C54.3054 4.49238 57.931 5.90803 61.1893 8.29758C64.3893 10.7135 66.9124 13.9624 68.7587 18.0443C70.5786 22.0679 71.3524 26.108 71.08 30.1648C70.7229 34.1896 69.4052 37.8763 67.1267 41.2249C64.7635 44.5415 61.541 47.123 57.4591 48.9692ZM53.4237 40.0474C56.0477 38.8605 58.1137 37.2939 59.6216 35.3475C61.0448 33.3692 61.9175 31.1833 62.2397 28.7898C62.4773 26.3643 62.0554 23.9562 60.974 21.5654C59.8926 19.1746 58.3759 17.2967 56.424 15.9319C54.3874 14.535 52.1695 13.747 49.7705 13.5678C47.2867 13.3566 44.7328 13.8444 42.1087 15.0313C39.4847 16.2182 37.4319 17.814 35.9504 19.8187C34.4425 21.7651 33.5698 23.951 33.3322 26.3764C33.01 28.7699 33.3896 31.1621 34.4709 33.5529C35.5523 35.9437 37.1113 37.8375 39.148 39.2343C41.0999 40.5992 43.3178 41.3872 45.8015 41.5984C48.2589 41.7513 50.7996 41.2343 53.4237 40.0474Z" fill="white"/>
</g>
<defs>
<clipPath id="clip0_3_96">
<rect width="79" height="68" rx="12" fill="white"/>
</clipPath>
</defs>
</svg>
