<svg width="352" height="92" viewBox="0 0 352 92" fill="none" xmlns="http://www.w3.org/2000/svg">
<g clip-path="url(#clip0_4_3)">
<rect y="12" width="79" height="68" rx="12" fill="white"/>
<path d="M0 24C0 17.3726 5.37258 12 12 12H67C73.6274 12 79 17.3726 79 24V68C79 74.6274 73.6274 80 67 80H12C5.37258 80 0 74.6274 0 68V24Z" fill="#19151B"/>
<path d="M29.8585 74.2961C27.1372 75.5269 24.4544 76.0146 21.8101 75.7589C19.1658 75.5033 16.7751 74.6179 14.638 73.1026C12.4834 71.5484 10.817 69.469 9.63892 66.8644C8.46083 64.2598 8.00839 61.6547 8.28159 59.0493C8.53721 56.4049 9.4421 54.0054 10.9963 51.8508C12.5504 49.6962 14.6881 48.0034 17.4094 46.7726C20.0918 45.5593 22.7746 45.0717 25.4578 45.3098C28.1021 45.5654 30.5016 46.4703 32.6562 48.0244C34.7933 49.5397 36.4508 51.5997 37.6289 54.2043C38.807 56.8089 39.2683 59.4334 39.0126 62.0777C38.7394 64.6832 37.8258 67.0633 36.2716 69.2179C34.6786 71.3901 32.5409 73.0828 29.8585 74.2961ZM28.4606 71.2055C30.6376 70.2209 32.3509 68.884 33.6005 67.1949C34.8501 65.5058 35.6004 63.6445 35.8514 61.6111C36.0459 59.5563 35.686 57.5182 34.7716 55.4967C33.8573 53.4752 32.5731 51.8785 30.9192 50.7066C29.2088 49.5135 27.3068 48.8284 25.2132 48.6515C23.1196 48.4746 20.9843 48.8785 18.8073 49.8632C16.6691 50.8302 14.9753 52.1583 13.7256 53.8474C12.4371 55.5541 11.6957 57.4348 11.5012 59.4896C11.2502 61.523 11.5819 63.5505 12.4962 65.572C13.4106 67.5935 14.7229 69.2008 16.4333 70.394C18.0872 71.5659 19.961 72.2403 22.0546 72.4172C24.1483 72.5941 26.2836 72.1902 28.4606 71.2055Z" fill="#B20DFF"/>
<path d="M57.4591 60.9692C53.3189 62.8419 49.2524 63.5573 45.2595 63.1156C41.2402 62.6155 37.6306 61.1575 34.4306 58.7416C31.1459 56.2937 28.5936 53.058 26.7737 49.0344C24.9274 44.9526 24.1828 40.8992 24.5399 36.8744C24.8386 32.8759 26.1404 29.2316 28.4453 25.9413C30.7238 22.5928 33.9331 19.9822 38.0733 18.1095C42.1552 16.2633 46.2349 15.577 50.3125 16.0506C54.3054 16.4924 57.931 17.908 61.1893 20.2976C64.3893 22.7135 66.9124 25.9624 68.7587 30.0443C70.5786 34.0679 71.3524 38.108 71.08 42.1648C70.7229 46.1896 69.4052 49.8763 67.1267 53.2249C64.7635 56.5415 61.541 59.123 57.4591 60.9692ZM53.4237 52.0474C56.0477 50.8605 58.1137 49.2939 59.6216 47.3475C61.0448 45.3692 61.9175 43.1833 62.2397 40.7898C62.4773 38.3643 62.0554 35.9562 60.974 33.5654C59.8926 31.1746 58.3759 29.2967 56.424 27.9319C54.3874 26.535 52.1695 25.747 49.7705 25.5678C47.2867 25.3566 44.7328 25.8444 42.1087 27.0313C39.4847 28.2182 37.4319 29.814 35.9504 31.8187C34.4425 33.7651 33.5698 35.951 33.3322 38.3764C33.01 40.7699 33.3896 43.1621 34.4709 45.5529C35.5523 47.9437 37.1113 49.8375 39.148 51.2343C41.0999 52.5992 43.3178 53.3872 45.8015 53.5984C48.2589 53.7513 50.7996 53.2343 53.4237 52.0474Z" fill="white"/>
</g>
<path d="M108.08 41.824L105.072 68H96.368L102.768 20.96L121.328 50.592L139.952 20.96L146.352 68H137.648L134.64 41.824L121.328 63.84L108.08 41.824ZM186.434 53.28C186.434 50.2933 187.095 47.648 188.418 45.344C189.74 43.04 191.532 41.2267 193.794 39.904C196.098 38.5813 198.679 37.92 201.538 37.92C204.396 37.92 206.956 38.5813 209.218 39.904C211.522 41.2267 213.335 43.04 214.658 45.344C215.98 47.648 216.642 50.2933 216.642 53.28C216.642 56.224 215.98 58.8693 214.658 61.216C213.335 63.52 211.522 65.3333 209.218 66.656C206.956 67.9787 204.396 68.64 201.538 68.64C198.679 68.64 196.098 67.9787 193.794 66.656C191.532 65.3333 189.74 63.52 188.418 61.216C187.095 58.8693 186.434 56.224 186.434 53.28ZM189.826 53.28C189.826 55.6693 190.338 57.7813 191.362 59.616C192.386 61.4507 193.772 62.9013 195.522 63.968C197.314 64.992 199.319 65.504 201.538 65.504C203.756 65.504 205.74 64.992 207.49 63.968C209.282 62.9013 210.69 61.4507 211.714 59.616C212.738 57.7813 213.25 55.6693 213.25 53.28C213.25 50.9333 212.738 48.8427 211.714 47.008C210.69 45.1307 209.282 43.68 207.49 42.656C205.74 41.5893 203.756 41.056 201.538 41.056C199.319 41.056 197.314 41.5893 195.522 42.656C193.772 43.68 192.386 45.1093 191.362 46.944C190.338 48.7787 189.826 50.8907 189.826 53.28ZM242.357 50.08C242.357 48.032 241.93 46.4747 241.077 45.408C240.266 44.3413 238.965 43.808 237.173 43.808C235.936 43.808 234.848 44.064 233.909 44.576C233.013 45.088 232.309 45.8133 231.797 46.752C231.285 47.6907 231.029 48.8 231.029 50.08V68H223.349V38.56H231.029V43.04C231.925 41.376 233.098 40.1173 234.549 39.264C236.042 38.368 237.834 37.92 239.925 37.92C243.338 37.92 245.898 38.9227 247.605 40.928C249.354 42.9333 250.229 45.7067 250.229 49.248V68H242.357V50.08ZM258.47 18.08H265.894V68H258.47V18.08ZM276.71 38.56H285.926L273.253 50.72L287.206 68H278.054L263.974 50.72L276.71 38.56ZM304.038 68.64C300.923 68.64 298.192 68 295.845 66.72C293.542 65.44 291.75 63.648 290.47 61.344C289.19 59.04 288.549 56.352 288.549 53.28C288.549 50.1653 289.19 47.456 290.47 45.152C291.75 42.848 293.563 41.0773 295.91 39.84C298.299 38.56 301.072 37.92 304.23 37.92C307.43 37.92 310.139 38.5173 312.358 39.712C314.576 40.9067 316.283 42.6347 317.478 44.896C318.672 47.1147 319.27 49.7813 319.27 52.896C319.27 53.28 319.248 53.6853 319.206 54.112C319.206 54.496 319.184 54.7947 319.142 55.008H293.03V50.08H312.55L310.374 53.024C310.544 52.768 310.694 52.4267 310.822 52C310.95 51.5307 311.014 51.1467 311.014 50.848C311.014 49.3547 310.715 48.0747 310.118 47.008C309.563 45.8987 308.774 45.0453 307.75 44.448C306.726 43.808 305.531 43.488 304.166 43.488C302.459 43.488 301.03 43.8507 299.878 44.576C298.726 45.3013 297.83 46.368 297.19 47.776C296.592 49.184 296.294 50.9547 296.294 53.088C296.251 55.0933 296.528 56.8213 297.126 58.272C297.766 59.68 298.683 60.768 299.878 61.536C301.072 62.2613 302.523 62.624 304.23 62.624C306.107 62.624 307.707 62.2613 309.03 61.536C310.395 60.768 311.526 59.6373 312.422 58.144L319.078 60.512C317.499 63.2 315.472 65.2267 312.998 66.592C310.523 67.9573 307.536 68.64 304.038 68.64ZM351.86 38.56L332.66 82.08H324.66L332.276 64.8L320.18 38.56H328.756L338.228 61.92L334.516 61.792L343.796 38.56H351.86Z" fill="white"/>
<path d="M151.246 53.28C151.246 50.2933 151.907 47.648 153.23 45.344C154.553 43.04 156.345 41.2267 158.606 39.904C160.91 38.5813 163.491 37.92 166.35 37.92C169.209 37.92 171.769 38.5813 174.03 39.904C176.334 41.2267 178.147 43.04 179.47 45.344C180.793 47.648 181.454 50.2933 181.454 53.28C181.454 56.224 180.793 58.8693 179.47 61.216C178.147 63.52 176.334 65.3333 174.03 66.656C171.769 67.9787 169.209 68.64 166.35 68.64C163.491 68.64 160.91 67.9787 158.606 66.656C156.345 65.3333 154.553 63.52 153.23 61.216C151.907 58.8693 151.246 56.224 151.246 53.28ZM154.638 53.28C154.638 55.6693 155.15 57.7813 156.174 59.616C157.198 61.4507 158.585 62.9013 160.334 63.968C162.126 64.992 164.131 65.504 166.35 65.504C168.569 65.504 170.553 64.992 172.302 63.968C174.094 62.9013 175.502 61.4507 176.526 59.616C177.55 57.7813 178.062 55.6693 178.062 53.28C178.062 50.9333 177.55 48.8427 176.526 47.008C175.502 45.1307 174.094 43.68 172.302 42.656C170.553 41.5893 168.569 41.056 166.35 41.056C164.131 41.056 162.126 41.5893 160.334 42.656C158.585 43.68 157.198 45.1093 156.174 46.944C155.15 48.7787 154.638 50.8907 154.638 53.28Z" fill="#B20DFF"/>
<defs>
<clipPath id="clip0_4_3">
<rect y="12" width="79" height="68" rx="12" fill="white"/>
</clipPath>
</defs>
</svg>
