<svg width="193" height="49" viewBox="0 0 193 49" fill="none" xmlns="http://www.w3.org/2000/svg">
<path d="M9.56 18.368L7.304 38H0.776L5.576 2.72L19.496 24.944L33.464 2.72L38.264 38H31.736L29.48 18.368L19.496 34.88L9.56 18.368ZM68.3251 26.96C68.3251 24.72 68.8211 22.736 69.8131 21.008C70.8051 19.28 72.1491 17.92 73.8451 16.928C75.5731 15.936 77.5091 15.44 79.6531 15.44C81.7971 15.44 83.7171 15.936 85.4131 16.928C87.1411 17.92 88.5011 19.28 89.4931 21.008C90.4851 22.736 90.9811 24.72 90.9811 26.96C90.9811 29.168 90.4851 31.152 89.4931 32.912C88.5011 34.64 87.1411 36 85.4131 36.992C83.7171 37.984 81.7971 38.48 79.6531 38.48C77.5091 38.48 75.5731 37.984 73.8451 36.992C72.1491 36 70.8051 34.64 69.8131 32.912C68.8211 31.152 68.3251 29.168 68.3251 26.96ZM70.8691 26.96C70.8691 28.752 71.2531 30.336 72.0211 31.712C72.7891 33.088 73.8291 34.176 75.1411 34.976C76.4851 35.744 77.9891 36.128 79.6531 36.128C81.3171 36.128 82.8051 35.744 84.1171 34.976C85.4611 34.176 86.5171 33.088 87.2851 31.712C88.0531 30.336 88.4371 28.752 88.4371 26.96C88.4371 25.2 88.0531 23.632 87.2851 22.256C86.5171 20.848 85.4611 19.76 84.1171 18.992C82.8051 18.192 81.3171 17.792 79.6531 17.792C77.9891 17.792 76.4851 18.192 75.1411 18.992C73.8291 19.76 72.7891 20.832 72.0211 22.208C71.2531 23.584 70.8691 25.168 70.8691 26.96ZM110.268 24.56C110.268 23.024 109.948 21.856 109.308 21.056C108.7 20.256 107.724 19.856 106.38 19.856C105.452 19.856 104.636 20.048 103.932 20.432C103.26 20.816 102.732 21.36 102.348 22.064C101.964 22.768 101.772 23.6 101.772 24.56V38H96.0117V15.92H101.772V19.28C102.444 18.032 103.324 17.088 104.412 16.448C105.532 15.776 106.876 15.44 108.444 15.44C111.004 15.44 112.924 16.192 114.204 17.696C115.516 19.2 116.172 21.28 116.172 23.936V38H110.268V24.56ZM122.352 0.559999H127.92V38H122.352V0.559999ZM136.032 15.92H142.944L133.44 25.04L143.904 38H137.04L126.48 25.04L136.032 15.92ZM156.528 38.48C154.192 38.48 152.144 38 150.384 37.04C148.656 36.08 147.312 34.736 146.352 33.008C145.392 31.28 144.912 29.264 144.912 26.96C144.912 24.624 145.392 22.592 146.352 20.864C147.312 19.136 148.672 17.808 150.432 16.88C152.224 15.92 154.304 15.44 156.672 15.44C159.072 15.44 161.104 15.888 162.768 16.784C164.432 17.68 165.712 18.976 166.608 20.672C167.504 22.336 167.952 24.336 167.952 26.672C167.952 26.96 167.936 27.264 167.904 27.584C167.904 27.872 167.888 28.096 167.856 28.256H148.272V24.56H162.912L161.28 26.768C161.408 26.576 161.52 26.32 161.616 26C161.712 25.648 161.76 25.36 161.76 25.136C161.76 24.016 161.536 23.056 161.088 22.256C160.672 21.424 160.08 20.784 159.312 20.336C158.544 19.856 157.648 19.616 156.624 19.616C155.344 19.616 154.272 19.888 153.408 20.432C152.544 20.976 151.872 21.776 151.392 22.832C150.944 23.888 150.72 25.216 150.72 26.816C150.688 28.32 150.896 29.616 151.344 30.704C151.824 31.76 152.512 32.576 153.408 33.152C154.304 33.696 155.392 33.968 156.672 33.968C158.08 33.968 159.28 33.696 160.272 33.152C161.296 32.576 162.144 31.728 162.816 30.608L167.808 32.384C166.624 34.4 165.104 35.92 163.248 36.944C161.392 37.968 159.152 38.48 156.528 38.48ZM192.395 15.92L177.995 48.56H171.995L177.707 35.6L168.635 15.92H175.067L182.171 33.44L179.387 33.344L186.347 15.92H192.395Z" fill="white"/>
<path d="M41.9345 26.96C41.9345 24.72 42.4305 22.736 43.4225 21.008C44.4145 19.28 45.7585 17.92 47.4545 16.928C49.1825 15.936 51.1185 15.44 53.2625 15.44C55.4065 15.44 57.3265 15.936 59.0225 16.928C60.7505 17.92 62.1105 19.28 63.1025 21.008C64.0945 22.736 64.5905 24.72 64.5905 26.96C64.5905 29.168 64.0945 31.152 63.1025 32.912C62.1105 34.64 60.7505 36 59.0225 36.992C57.3265 37.984 55.4065 38.48 53.2625 38.48C51.1185 38.48 49.1825 37.984 47.4545 36.992C45.7585 36 44.4145 34.64 43.4225 32.912C42.4305 31.152 41.9345 29.168 41.9345 26.96ZM44.4785 26.96C44.4785 28.752 44.8625 30.336 45.6305 31.712C46.3985 33.088 47.4385 34.176 48.7505 34.976C50.0945 35.744 51.5985 36.128 53.2625 36.128C54.9265 36.128 56.4145 35.744 57.7265 34.976C59.0705 34.176 60.1265 33.088 60.8945 31.712C61.6625 30.336 62.0465 28.752 62.0465 26.96C62.0465 25.2 61.6625 23.632 60.8945 22.256C60.1265 20.848 59.0705 19.76 57.7265 18.992C56.4145 18.192 54.9265 17.792 53.2625 17.792C51.5985 17.792 50.0945 18.192 48.7505 18.992C47.4385 19.76 46.3985 20.832 45.6305 22.208C44.8625 23.584 44.4785 25.168 44.4785 26.96Z" fill="#B20DFF"/>
</svg>
